<?xml version="1.0" encoding="UTF-8"?>
<svg width="64" height="64" viewBox="0 0 64 64" fill="none" xmlns="http://www.w3.org/2000/svg">
  <defs>
    <linearGradient id="hordBlue" x1="16" y1="10" x2="48" y2="54" gradientUnits="userSpaceOnUse">
      <stop offset="0" stop-color="#1976E8"/>
      <stop offset="1" stop-color="#0A4BB8"/>
    </linearGradient>
    <linearGradient id="heartRed" x1="12" y1="8" x2="28" y2="26" gradientUnits="userSpaceOnUse">
      <stop offset="0" stop-color="#FF8D7A"/>
      <stop offset="1" stop-color="#F14F42"/>
    </linearGradient>
  </defs>

  <circle cx="32" cy="32" r="30" fill="#E7F7DB"/>

  <path
    d="M8 17.5C8 13.4 11.2 10 15.2 10C17.8 10 20.2 11.3 21.7 13.4C23.2 11.3 25.6 10 28.2 10C32.2 10 35.4 13.4 35.4 17.5C35.4 24.3 27.3 30.2 21.7 34C16.1 30.2 8 24.3 8 17.5Z"
    fill="url(#heartRed)"
  />

  <path d="M22.8 46.5L31.9 21.5C33 18.4 35.9 16.4 39.2 16.4H40.5L31.4 41.4C30.3 44.5 27.4 46.5 24.1 46.5H22.8Z" fill="url(#hordBlue)"/>
  <path d="M36.8 46.5L45.9 21.5C47 18.4 49.9 16.4 53.2 16.4H54.5L45.4 41.4C44.3 44.5 41.4 46.5 38.1 46.5H36.8Z" fill="url(#hordBlue)"/>
  <path d="M30.5 34.6L33.2 27.2H46.1L43.4 34.6H30.5Z" fill="url(#hordBlue)"/>
</svg>
