<?xml version="1.0" encoding="UTF-8"?>
<svg width="1024" height="1024" viewBox="0 0 1024 1024" fill="none" xmlns="http://www.w3.org/2000/svg">
  <defs>
    <linearGradient id="hordBlue" x1="280" y1="240" x2="820" y2="820" gradientUnits="userSpaceOnUse">
      <stop offset="0" stop-color="#1E78EA"/>
      <stop offset="1" stop-color="#0B4BB8"/>
    </linearGradient>
    <linearGradient id="heartRed" x1="120" y1="180" x2="420" y2="520" gradientUnits="userSpaceOnUse">
      <stop offset="0" stop-color="#FF8D7A"/>
      <stop offset="1" stop-color="#F14F42"/>
    </linearGradient>
  </defs>

  <!-- soft lavender circle background (matches brand mark) -->
  <circle cx="512" cy="512" r="430" fill="#E9DFF6"/>

  <!-- heart -->
  <path
    d="M175 290C175 235 218 190 272 190C308 190 342 208 364 237C386 208 420 190 456 190C510 190 553 235 553 290C553 382 442 455 364 510C286 455 175 382 175 290Z"
    fill="url(#heartRed)"
  />

  <!-- stylized H (flat, high-contrast for web + app) -->
  <g transform="translate(0,0) rotate(-14 560 560)">
    <rect x="346" y="260" width="170" height="604" rx="85" fill="url(#hordBlue)"/>
    <rect x="586" y="260" width="170" height="604" rx="85" fill="url(#hordBlue)"/>
    <rect x="346" y="472" width="410" height="170" rx="85" fill="url(#hordBlue)"/>

    <!-- notches to echo the original mark -->
    <rect x="516" y="520" width="110" height="260" rx="55" fill="#E9DFF6"/>
    <rect x="446" y="704" width="150" height="120" rx="60" fill="#E9DFF6"/>
  </g>
</svg>

