<svg width="1400" height="560" viewBox="0 0 1400 560" fill="none" xmlns="http://www.w3.org/2000/svg">
  <defs>
    <linearGradient id="bg" x1="0" y1="0" x2="1400" y2="560" gradientUnits="userSpaceOnUse">
      <stop stop-color="#F7F6FF"/>
      <stop offset="1" stop-color="#EEF2FF"/>
    </linearGradient>
    <filter id="shadow" x="-20%" y="-20%" width="140%" height="140%">
      <feDropShadow dx="0" dy="16" stdDeviation="16" flood-color="#1B103A" flood-opacity="0.16"/>
    </filter>
    <clipPath id="clipMain">
      <rect x="474" y="84" width="852" height="392" rx="22" />
    </clipPath>
    <clipPath id="clipSmall1">
      <rect x="490" y="98" width="190" height="125" rx="14" />
    </clipPath>
    <clipPath id="clipSmall2">
      <rect x="520" y="290" width="210" height="135" rx="14" />
    </clipPath>
  </defs>

  <rect width="1400" height="560" fill="url(#bg)"/>
  <circle cx="1160" cy="100" r="210" fill="#8B5CF6" opacity="0.08"/>
  <circle cx="1210" cy="510" r="220" fill="#6366F1" opacity="0.06"/>

  <text x="60" y="150" font-family="Microsoft YaHei, PingFang SC, sans-serif" font-size="34" font-weight="700" fill="#111827">HORD</text>
  <text x="60" y="188" font-family="Microsoft YaHei, PingFang SC, sans-serif" font-size="20" font-weight="700" fill="#5B3CC4">Hold Your Word</text>
  <text x="60" y="222" font-family="Microsoft YaHei, PingFang SC, sans-serif" font-size="16" fill="#374151">构建持久的英语能力</text>
  <text x="60" y="256" font-family="Microsoft YaHei, PingFang SC, sans-serif" font-size="14" fill="#4B5563">用更稳定的采集节奏 + 复习闭环</text>

  <rect x="460" y="70" width="880" height="420" rx="28" fill="white" filter="url(#shadow)"/>
  <rect x="474" y="84" width="852" height="392" rx="22" fill="#F4F6FF" stroke="#E6E9F8"/>
  <image href="file:///C:/OneDrive/Work%20Space/Vocab-Master%20WEB/screens/manange%E5%8D%95%E8%AF%8D%E6%9C%AC/manange%E5%8D%95%E8%AF%8D%E6%9C%AC%E6%97%A5%E9%97%B41.png" x="474" y="84" width="852" height="392" preserveAspectRatio="xMidYMid meet" clip-path="url(#clipMain)" />

  <rect x="484" y="92" width="200" height="135" rx="14" fill="white" filter="url(#shadow)"/>
  <image href="file:///C:/OneDrive/Work%20Space/Vocab-Master%20WEB/screens/content%E5%BC%B9%E7%AA%97/%E6%97%A5%E9%97%B4%E6%A8%A1%E5%BC%8F%E7%BF%BB%E8%AF%91.png" x="490" y="98" width="190" height="125" preserveAspectRatio="xMidYMid meet" clip-path="url(#clipSmall1)" />

  <rect x="514" y="284" width="220" height="145" rx="14" fill="white" filter="url(#shadow)"/>
  <image href="file:///C:/OneDrive/Work%20Space/Vocab-Master%20WEB/screens/popup%E8%8F%9C%E5%8D%95/_%E6%97%A5%E9%97%B4%E8%8F%9C%E5%8D%95%E6%A0%8F.png" x="520" y="290" width="210" height="135" preserveAspectRatio="xMidYMid meet" clip-path="url(#clipSmall2)" />
</svg>
