<svg width="1400" height="560" viewBox="0 0 1400 560" fill="none" xmlns="http://www.w3.org/2000/svg">
  <defs>
    <linearGradient id="bg" x1="0" y1="0" x2="1400" y2="560" gradientUnits="userSpaceOnUse">
      <stop stop-color="#F7F6FF"/>
      <stop offset="1" stop-color="#EEF2FF"/>
    </linearGradient>
    <filter id="shadow" x="-20%" y="-20%" width="140%" height="140%">
      <feDropShadow dx="0" dy="14" stdDeviation="14" flood-color="#1B103A" flood-opacity="0.16"/>
    </filter>
    <clipPath id="clipA"><rect x="540" y="90" width="340" height="250" rx="18" /></clipPath>
    <clipPath id="clipB"><rect x="890" y="90" width="340" height="250" rx="18" /></clipPath>
    <clipPath id="clipC"><rect x="700" y="250" width="340" height="250" rx="18" /></clipPath>
  </defs>

  <rect width="1400" height="560" fill="url(#bg)"/>
  <circle cx="1180" cy="90" r="200" fill="#8B5CF6" opacity="0.08"/>
  <circle cx="1200" cy="500" r="210" fill="#6366F1" opacity="0.06"/>

  <text x="60" y="150" font-family="Microsoft YaHei, PingFang SC, sans-serif" font-size="34" font-weight="700" fill="#111827">HORD</text>
  <text x="60" y="190" font-family="Microsoft YaHei, PingFang SC, sans-serif" font-size="20" font-weight="700" fill="#5B3CC4">Hold Your Word</text>
  <text x="60" y="224" font-family="Microsoft YaHei, PingFang SC, sans-serif" font-size="16" fill="#374151">构建持久的英语能力</text>
  <text x="60" y="258" font-family="Microsoft YaHei, PingFang SC, sans-serif" font-size="14" fill="#4B5563">多界面串联：采集 → 归档 → 复习</text>

  <rect x="530" y="82" width="360" height="270" rx="20" fill="white" filter="url(#shadow)"/>
  <image href="file:///C:/OneDrive/Work%20Space/Vocab-Master%20WEB/screens/manange%E5%8D%95%E8%AF%8D%E6%9C%AC/manange%E5%8D%95%E8%AF%8D%E6%9C%AC%E6%97%A5%E9%97%B41.png" x="540" y="90" width="340" height="250" preserveAspectRatio="xMidYMid meet" clip-path="url(#clipA)" />

  <rect x="880" y="82" width="360" height="270" rx="20" fill="white" filter="url(#shadow)"/>
  <image href="file:///C:/OneDrive/Work%20Space/Vocab-Master%20WEB/screens/content%E5%BC%B9%E7%AA%97/%E6%97%A5%E9%97%B4%E6%A8%A1%E5%BC%8F%E7%BF%BB%E8%AF%91.png" x="890" y="90" width="340" height="250" preserveAspectRatio="xMidYMid meet" clip-path="url(#clipB)" />

  <rect x="690" y="242" width="360" height="270" rx="20" fill="white" filter="url(#shadow)"/>
  <image href="file:///C:/OneDrive/Work%20Space/Vocab-Master%20WEB/screens/popup%E8%8F%9C%E5%8D%95/_%E6%97%A5%E9%97%B4%E8%8F%9C%E5%8D%95%E6%A0%8F.png" x="700" y="250" width="340" height="250" preserveAspectRatio="xMidYMid meet" clip-path="url(#clipC)" />
</svg>
